<svg width="1024" height="1024" viewBox="0 0 1024 1024" fill="none" xmlns="http://www.w3.org/2000/svg">
<path fill-rule="evenodd" clip-rule="evenodd" d="M518.572 326.354C550.33 322.565 574.949 295.603 574.949 262.904C574.949 227.611 546.266 199 510.885 199C475.503 199 446.82 227.611 446.82 262.904C446.82 295.603 471.44 322.565 503.197 326.354V442.192C483.137 444.052 465.174 453.12 451.935 466.773L406.084 421.037C412.36 412.553 416.069 402.065 416.069 390.713C416.069 362.479 393.123 339.59 364.818 339.59C336.512 339.59 313.566 362.479 313.566 390.713C313.566 418.948 336.512 441.837 364.818 441.837C376.196 441.837 386.708 438.138 395.212 431.881L442.271 478.823C436.031 488.312 431.715 499.172 429.877 510.854H315.672C311.874 479.176 284.845 454.618 252.064 454.618C216.683 454.618 188 483.229 188 518.522C188 553.816 216.683 582.427 252.064 582.427C284.845 582.427 311.874 557.869 315.672 526.191H428.921C429.631 549.252 439.91 569.911 455.932 584.349L377.651 662.433C369.56 657.103 359.865 654 349.442 654C321.137 654 298.191 676.888 298.191 705.123C298.191 733.358 321.137 756.247 349.442 756.247C377.748 756.247 400.694 733.358 400.694 705.123C400.694 692.824 396.34 681.539 389.085 672.718L468.393 593.608C480.785 601.112 495.329 605.432 510.885 605.432C529.45 605.432 546.574 599.278 560.319 588.904L635.889 664.285C628.25 673.213 623.638 684.797 623.638 697.455C623.638 725.689 646.584 748.578 674.89 748.578C703.195 748.578 726.141 725.689 726.141 697.455C726.141 669.22 703.195 646.331 674.89 646.331C664.832 646.331 655.451 649.221 647.536 654.213L571.671 578.538C584.855 564.023 592.887 544.764 592.887 523.635C592.887 481.045 560.256 446.058 518.572 442.192V326.354ZM483.211 532.201L515.643 481.276C517.295 478.681 521.34 480.399 520.584 483.374L512.569 514.922H534.217C536.306 514.922 537.577 517.202 536.464 518.955L504.11 569.924C502.458 572.525 498.405 570.803 499.168 567.824L507.258 536.237H485.456C483.365 536.237 482.095 533.953 483.211 532.201Z" fill="url(#paint0_linear_90_1829)"/>
<defs>
<linearGradient id="paint0_linear_90_1829" x1="188" y1="477.623" x2="658.02" y2="477.865" gradientUnits="userSpaceOnUse">
<stop stop-color="#C83BD0"/>
<stop offset="0.5" stop-color="#EE597E"/>
<stop offset="1" stop-color="#FF985B"/>
</linearGradient>
</defs>
</svg>
